<?xml version="1.0" standalone="no"?>
<!DOCTYPE svg PUBLIC "-//W3C//DTD SVG 1.1//EN" "http://www.w3.org/Graphics/SVG/1.1/DTD/svg11.dtd">
<svg xmlns="http://www.w3.org/2000/svg">
<metadata>Generated by Fontastic.me</metadata>
<defs>
<font id="ictgroup" horiz-adv-x="512">
<font-face font-family="ictgroup" units-per-em="512" ascent="480" descent="-32"/>
<missing-glyph horiz-adv-x="512" />

<glyph glyph-name="1" unicode="&#97;" d="M185 273l0 12c0 8-1 13-3 19-2 2 0 5 2 6 2 1 5 0 6-3 3-7 4-13 4-22l0-13c0-2-2-4-5-4-2 0-4 2-4 5m17 47c0 1-1 2-2 4 0 0 0 0 0 0-2 4-4 9-6 15l0 1c2 2 3 5 3 8l0 9c0 7-6 12-12 12l-35 0c-7 0-13-5-13-12l0-7c0 0 0-7 3-9l-3-8c-1-4-2-6-3-9 0 0 0 0 0 0-1-1-2-3-2-4-6-11-10-18-10-33l0-98c0-14 12-26 27-26 2 0 4 2 4 4 0 3-2 5-4 5-10 0-18 7-18 17l0 98c0 13 3 19 8 29 1 0 1 1 1 2l4 8c2 3 3 7 4 10 1 0 1 0 1 0l36 0c0 0 0 0 0 0 2-3 3-7 4-10l5-8c0-1 0-2 1-2 5-10 8-16 8-29l0-11c0-2 2-4 4-4 2 0 4 2 4 4l0 11c1 15-3 22-9 33m-14 28c0-1 0-2-1-2 0 0 0-1 0-1-1 0-2 0-2 0l-35 0c-1 0-2 0-3 0 0 0 0 1 0 1-1 0-1 1-1 2l0 9c0 1 1 3 4 3l35 0c2 0 3-1 3-3l0-9z m184-147c3 0 5 3 5 5 0 2-2 4-5 4-1 0-2-1-3-1 0-1-1-2-1-3 0-3 2-5 4-5m-44 103c-2 0-4 1-6 2-2 0-4-1-5-3-1-2 0-4 2-5 3-1 5-2 7-2 0 0 1-1 1-1 1 0 2 1 2 1 1 1 2 2 2 4 0 2-1 3-3 4m49-112c0 2-2 4-4 4 0 0-1 0-1 0-2 0-4-2-4-4 0-1 0-2 1-3 1-1 2-1 3-1 3 0 5 1 5 4m-5-18c0 0 0 0 0 0 3 0 5 2 5 4 0 2-2 4-5 4-1 0-2 0-3-1 0-1-1-2-1-3 0-2 2-4 4-4m-8 105c-1 0-1 1-2 2 0 0-1 1-2 2-2 2-4 5-6 7-4 3-8 5-11 7l-2 1c-1 1-2 1-3 1-1-1-2-1-3-2-1-2 0-5 2-6 0 0 0 0 1 0 0-1 0-1 0-1 2-1 3-2 4-3 3-2 6-4 9-6 2-1 3-3 4-4 0-1 1-2 2-2 1-2 2-2 3-2 0 0 1 0 1 0 1 1 2 2 3 2 0 1 0 1 0 1 1 1 1 1 0 1 0 1 0 1 0 2m-109-18c0 0 1 1 1 1 2 1 4 2 6 2 2 0 4-1 5-2 1 0 1-1 1-1 0 0-1-1-1-1-1 0-2-1-4-1 0 0-1 0-1-1-1 1-1 1-2 1-1 0-2 1-4 1 0 0-1 1-1 1m-5 7c-2-2-3-4-3-7 0-2 1-5 3-7 3-3 7-4 11-4 4 0 8 1 10 3 3 2 5 5 5 7 0 3-1 6-3 8-6 6-17 6-23 0m81-108c2 0 4 2 4 4 0 3-2 5-4 5-2 0-3-1-3-2-1 0-2-2-2-3 1-2 2-4 5-4m-72 15c0 1 1 3 2 4 1 1 2 2 4 2 3 0 6-3 6-6 0-4-3-6-6-6-3-1-6 3-6 6m6-15c4 0 8 2 10 4 3 3 5 6 5 10 0 9-7 15-15 15-4 0-8-1-10-4-3-3-5-6-5-10 0-8 7-15 15-15m107 0c3 0 5 2 5 4 0 2-1 3-1 3-1 1-2 2-4 2 0 0 0 0 0 0-2 0-4-2-4-5 0-2 2-4 4-4m-172 39c0 2 1 5 3 7 2 2 4 3 7 3 0 0 0 0 0 0 5 0 10-5 10-10 0-5-5-10-10-10-3 0-5 1-7 3-2 2-3 5-3 7m10-18c5 0 9 2 12 5 4 4 6 8 6 13 0 10-9 18-18 18-10 0-18-8-18-18 0-10 8-18 18-18m-34 38l0 10c0 0 0 0 0 0l127 0c-2-9 0-16 7-22 4-4 9-6 16-5 7 0 12 4 16 9 4 6 4 12 3 18l37 0c0 0 0-1 0-1 0-23 0-46 0-69 0-4-1-5-4-5-66 0-132 0-198 0-3 0-4 1-4 4 0 20 0 41 0 61m158-5c-4-4-9-5-14-3-5 1-8 5-9 10 0 0 0 0 0 1 0 0 0 0 0 0 0 1 0 1 0 2 1 2 1 3 1 5 1 0 1 1 2 1 0 0 1 0 1 0 1 0 1-1 2-1 1 1 3 1 5 0 1 0 2 0 2 0 0 0 0 0 1 0 1 0 1 0 2 0 3 0 5 0 8 0 1 0 1 0 1-1 2-5 1-10-2-14m48 24l-195 0 23 13c36 20 72 40 107 60 1 1 2 1 4 1 13-4 24-9 33-15 14-11 22-25 26-42 0-4 1-8 1-12 1-2 1-4 1-5m8-7c0 10 0 18-2 25-4 21-15 38-32 49-10 7-20 11-34 15-3 1-5 1-7-1-28-16-56-32-84-48-20-11-40-22-60-34-1 0-2-1-2-1-1 0-1-1-1-1 0 0 0 0 0-1l0-79c0 0 0 0 0 0 2-6 6-9 13-9 51 0 103 0 153 0l44 0c8 0 12 4 12 12l0 23c0 17 0 34 0 50m-45-57c2 0 4 2 4 4 0 2-2 4-4 4-1 0-2 0-3-1-1-1-1-2-1-3-1-2 1-4 4-4m14 8c-3 0-5-2-5-4 0-2 2-4 4-4 0 0 1 0 1 0 1 0 2 0 3 1 0 1 1 2 1 3 0 2-2 4-4 4m0-14c-2 0-3 0-3-1-1-1-2-2-2-3 0-2 2-4 5-4 2 0 4 2 4 4 0 2-2 4-4 4m-14 0c-2 0-5-1-5-4 0-1 1-2 2-3 1 0 2-1 3-1 2 0 4 2 4 4 0 3-2 4-4 4m14 20c2 0 4 2 4 4 0 2-2 4-4 4-3 0-5-2-5-4 0-2 1-3 2-3 0-1 1-1 3-1"/>
<glyph glyph-name="2" unicode="&#98;" d="M412 247l-31-15-41 86 30 15z m-39 95c-1 1-2 1-3 0l-38-18c-2-1-3-4-2-6l44-90-14-14c-13-12-27-21-43-29l-73-35c-1-1-4-2-6-1-2 1-3 2-4 4-1 2-1 4-1 6 1 2 2 4 4 5l1 0 40 20c1 0 2 1 2 2 1 1 1 3 0 4 0 1-1 2-2 2-1 0-2 0-4 0l-60-30c-1-1-4-1-6 0-2 1-3 2-4 4-1 2-1 4-1 6 1 2 2 4 4 5l59 28c2 1 3 4 2 6-1 1-1 2-3 2-1 1-2 1-3 0l-66-32c-2-1-4-1-6-1-2 1-3 2-4 4-1 2-1 4-1 6 1 2 2 4 4 5l60 29c2 1 3 4 2 6-1 2-4 3-6 2l-52-26c-4-2-9 0-11 4-1 2-1 4 0 6 0 2 2 4 4 5l28 13c1 1 1 2 2 3 0 1 0 2 0 3-1 2-4 3-6 2l-28-14c-4-2-7-5-8-9-2-4-2-9 0-13 2-2 3-4 5-6l2-1-1-1c-4-5-5-12-2-17 2-4 5-7 10-9 1 0 3-1 5-1l1 0 0-1c0-3 1-6 2-8 3-6 9-9 15-9 2 0 5 0 7 2l6 2 0-2c1-2 1-4 2-6 3-5 9-9 15-9 2 0 5 1 7 2l73 36c16 8 31 18 44 30l17 15 37 18c2 1 2 2 3 3 0 1 0 2-1 3l-45 93c-1 1-2 2-3 2m-193-16l-30-90-32 11 30 90z m137-19l-78 27c-8 3-16 2-23-1l-4-2c-5-3-11-3-17-1l-6 2c-1 1-1 1-2 1l-40 14c0 0-1 0-1 0-2 0-4-1-4-3l-34-98c0-1 0-3 0-4 1-1 2-1 3-2l40-14c0 0 1 0 1 0 2 0 4 1 4 3l33 94 3-1c8-3 16-2 24 1l4 2c5 3 11 3 16 1l75-26 0-1c-1-3-2-7-6-10-3-2-8-2-15 0l-33 11c-1 1-2 1-3 0-1 0-2-1-3-3 0-3-5-18-19-26-10-5-22-5-35 0-3 1-5-1-6-3-1-2 0-5 3-5 16-6 30-5 42 1 12 6 18 17 22 26l0 1 29-10c9-3 17-3 23 1 9 6 10 18 10 21 0 2-1 4-3 4"/>
<glyph glyph-name="3" unicode="&#99;" d="M311 323c2 0 4 2 4 4 0 3-2 5-4 5-12 0-21-10-21-21 0-12 9-21 21-21 11 0 21 9 21 21 0 4-2 9-5 13-1 1-4 2-6 0-2-1-2-4 0-6 1-2 2-4 2-7 0-7-5-12-12-12-7 0-12 5-12 12 0 6 5 12 12 12m-97-134c5-2 9-3 14-3 22 0 41 19 41 42 0 8-3 17-8 24-1 2-4 2-6 1-2-2-2-4-1-6 4-6 6-13 6-19 0-18-14-33-32-33-4 0-8 1-11 2-1 0-2 0-3 0-1-1-2-2-3-3 0-2 1-5 3-5m14 71c5 0 10-1 14-4 2-1 5 0 6 2 1 1 1 1 1 2 0 2-1 3-2 4-6 3-13 5-19 5-23 0-42-19-42-41 0-11 4-21 12-29 1-1 2-1 3-1 1 0 3 0 3 1 2 2 2 4 0 6-6 6-9 14-9 23 0 18 15 32 33 32m78-16l-16 4c-1 2-2 5-3 7-1 2-2 2-3 3-1 0-2 0-3 0-2-1-3-4-2-6 1-3 2-6 3-9 1-2 2-3 3-3l19-4c2 0 3-2 3-3l0-11c0-1-1-2-3-3l-19-3c-1-1-2-2-3-4-1-4-3-8-5-12-1-2-1-3 0-5l11-16c1-1 1-3-1-4l-7-7c-1-1-3-2-4-1l-16 11c-1 1-3 1-5 0-4-2-8-4-12-5-2 0-3-2-3-3l-4-19c0-2-2-3-3-3l-11 0c-1 0-2 1-3 3l-3 19c-1 1-2 3-4 3-4 1-8 3-12 5-2 1-3 1-5 0l-16-11c-1-1-3-1-4 1l-7 7c-1 1-2 3-1 4l11 16c1 2 1 3 0 5-2 4-4 8-5 12 0 2-2 3-3 4l-19 3c-2 1-3 2-3 3l0 11c0 1 1 3 3 3l19 4c1 0 3 1 3 3 1 4 3 8 5 12 1 2 1 3 0 5l-11 16c-1 1-1 3 1 4l7 7c1 2 3 2 4 1l16-11c2-1 3-1 5 0 4 2 8 4 12 5 2 1 3 2 4 3l3 19c1 2 2 3 3 3l11 0c1 0 3-1 3-3l4-19c0-1 1-2 3-3 3-1 6-2 9-3 2-1 5 0 6 2 0 1 0 2 0 3 0 1-1 2-2 3-3 1-6 2-8 3l-4 16c-1 6-6 10-11 10l-11 0c-5 0-10-4-11-10l-4-16c-3-1-6-3-9-4l-14 9c-5 3-11 3-15-1l-7-8c-5-4-5-10-2-15l9-14c-1-3-3-6-4-9l-16-4c-6-1-10-6-10-11l0-11c0-5 4-10 10-11l16-4c1-3 3-6 4-9l-9-14c-3-5-3-11 2-15l7-7c4-5 10-5 15-2l14 9c3-1 6-3 9-4l4-16c1-6 6-10 11-10l11 0c5 0 10 4 11 10l4 16c3 1 6 3 9 4l14-9c5-3 11-3 15 2l8 7c4 4 4 10 1 15l-9 14c1 3 3 6 4 9l16 4c6 1 10 6 10 11l0 11c0 5-4 10-10 11m-92-16c0 7 6 13 14 13 7 0 13-6 13-13 0-8-6-14-13-14-8 0-14 6-14 14m14-23c12 0 22 10 22 23 0 12-10 22-22 22-13 0-23-10-23-22 0-13 10-23 23-23m135 119l-10 2c-1 1-2 3-2 4l5 9c3 4 2 9-1 12l-5 5c-3 3-8 3-12 1l-8-6c-2 1-3 2-5 2l-2 10c-1 5-5 8-9 8l-7 0c-4 0-9-3-9-8l-2-10c-2 0-4-1-5-2l-9 6c-3 2-8 2-11-1l-5-5c-3-3-4-8-2-12l6-9c-1-1-1-3-2-4l-10-2c-4-1-8-5-8-10l0-7c0-4 3-8 8-9l10-2c1-1 1-3 2-5l-6-8c-2-4-2-9 2-12l5-5c3-3 8-3 11-1l9 6c2-1 5-2 7-3 1 0 3 0 4 0 1 1 1 2 2 3 0 2-1 5-3 5-3 1-6 2-8 4-2 0-3 0-5-1l-10-7c-1 0-1 0-1 0l-5 5c0 0 0 1 0 1l7 10c1 2 1 3 0 5-1 2-2 5-3 8-1 1-2 3-3 3l-13 2c0 0 0 1 0 1l0 7c0 0 0 0 0 0l13 3c1 0 2 1 3 3 1 3 2 5 3 8 1 1 1 3 0 5l-7 10c0 0 0 1 0 1l5 5c0 0 0 0 1 0l10-7c1-2 3-2 5-1 2 2 5 3 8 4 1 0 2 1 3 3l2 12c0 1 0 1 1 1l7 0c0 0 0 0 0-1l3-12c0-2 1-3 3-3 3-1 5-2 8-4 1-1 3-1 4 1l11 7c0 0 0 0 1 0l4-5c1 0 1-1 0-1l-7-10c-1-2-1-4 0-5 1-3 3-5 3-8 1-2 2-3 4-3l12-3c0 0 1 0 1 0l0-7c0 0-1-1-1-1l-12-2c-2 0-3-2-4-3 0-3-1-6-3-8-1-2-1-3 0-5l7-10c1 0 1-1 0-1l-4-5c-1 0-1 0-1 0l-11 7c-1 1-3 1-4 1-3-2-5-3-8-4-2 0-3-2-3-3l-3-13c0 0 0 0 0 0l-7 0c-1 0-1 0-1 0l0 1c-1 2-3 4-5 3-3 0-4-2-4-5l1 0c0-5 5-8 9-8l7 0c4 0 8 3 9 8l2 10c2 0 3 1 5 2l8-6c4-3 9-2 12 1l5 5c3 3 4 8 1 12l-5 8c0 2 1 3 2 5l10 2c4 1 7 5 7 9l0 7c0 5-3 9-7 10"/>
<glyph glyph-name="4" unicode="&#100;" d="M344 255l0 8 35 14 1-8z m-145-99l136 0 0-10-136 0z m-45 113l2 8 35-14 0-8z m11 61c1 8 7 13 14 15l41 9 18-28c2-3 4-4 6-4 1 0 1 0 2 0 2 0 4 0 5 1l3 3 0-33c0-5 4-9 9-9l9 0c4 0 8 4 8 9l0 33 3-3c2-1 4-1 6-1 0 0 1 0 1 0 2 0 5 2 6 4l18 28 41-9c8-2 13-7 14-15l8-45-33-13 0 25c0 2-2 4-5 4-2 0-4-2-4-4l0-133-136 0 0 133c0 2-2 4-4 4-3 0-4-2-4-4l0-25-34 13z m67 36l28-25-14-11c0 0 0 0 0 0-1 0-1 0-1 0l-18 29z m30-34l5 4 5-4 0-39c0 0 0-1 0-1l-9 0c-1 0-1 1-1 1z m5 15l-25 21 50 0z m40 12l-18-29c0 0 0 0 0 0-1 0-1 0-1 0l-14 11 28 25z m82-92l-11 65c-2 10-10 19-21 21l-42 10-8 11c-1 1-2 2-3 2 0 0-1 0-1 0l0 0-72 0 0 0c0 0 0 0-1 0-1 0-2-1-3-2l-8-11-42-10c-11-2-19-11-21-21l-11-65c0-2 1-4 3-5l43-16 0-104c0-2 1-4 4-4l144 0c3 0 5 2 5 4l0 104 42 16c2 1 3 3 3 5"/>
<glyph glyph-name="5" unicode="&#101;" d="M167 257c-9 1-17-6-18-16 0-10 6-18 16-19 9-1 17 7 18 16 1 10-6 18-16 19m1 10c15-1 26-14 25-30-1-15-14-27-29-25-15 1-26 14-25 30 1 15 14 27 29 25m13-51l126 88c0 0 11 6 6 19l-6-3c0 0 1-6-6-11-20-14-121-84-121-84m-24 112c0 1 0 1 0 0 1-6-2-13-7-16 0 0 0 0 0 0 6 1 13-2 16-8 0 0 1 0 1 0-2 7 1 14 7 17 0 0 0 0 0 0-7-1-13 2-17 7m32 37c0 0 0 1-1 1-5-2-11 1-14 6 0 0-1 0-1 0 2-6-1-12-6-15 0 0 0 0 0 0 6 1 12-1 15-7 0 0 0 0 0 0-1 6 1 12 7 15m46-37c1 0 1 0 0 0-11-2-23 3-29 13 0 1-1 1-1 0 3-12-3-24-13-29 0-1 0-1 0-1 12 2 24-3 30-13 0-1 0 0 0 0-2 12 3 24 13 30m-21-131c10 1 17-7 18-17 0-9-7-17-17-17-9-1-17 7-17 17 0 9 7 17 16 17m88 123l3 6c-13 6-19-5-19-5l-93-124 1 0c-4-5-6-11-6-18 0-15 12-27 27-27 15 0 27 13 27 29 0 15-13 27-28 27-1 0-2 0-3 0 21 27 68 91 79 106 6 8 12 6 12 6m48-6c-7-1-22-20-36-53l-4-21-12-27-30-71c-1-4-2-7 1-8 4-1 6 2 7 5l44 104-6-15z"/>
<glyph glyph-name="6" unicode="&#102;" d="M333 361l0 0-158 0c-1 0-6 0-6-5 0-9 0-209 0-211 0-2 0-4 2-6 1-1 3-1 5-1l158 0 0 0c2 0 4 0 5 1 1 1 2 3 2 5 0 9-1 202-1 210 1 1 0 4-1 5-1 1-3 2-6 2m-157-231c-4 0-8 2-11 4-2 3-4 7-4 11 0 8 0 202 0 211 1 7 6 12 14 12l158 0 0 0c6 0 9-2 11-4 3-2 4-6 4-11-1-7 0-207 0-209 0-4-1-7-4-10-2-2-6-4-10-4l0 0-158 0 0 0z m79 150c-16 0-30-6-41-17-11-11-17-25-17-41 0-32 25-58 57-58 0 0 0 0 0 0 33 0 58 25 59 58 0 32-26 58-58 58 0 0 0 0 0 0m-1-123l0 0c-36 0-64 30-64 65 0 18 7 34 19 46 13 12 29 19 47 19 35 0 64-29 63-65 0-36-28-65-65-65m-33 182c0-3 3-6 6-6 4 0 6 3 6 6 0 4-2 6-6 6-3 0-6-2-6-6m-13 0c0 4-2 6-6 6-4 0-6-2-6-6 0-3 2-6 6-6 3 0 6 3 6 6m-6 3c-2 0-3-1-3-3 0-1 0-1 1-2 0 0 1-1 2-1 1 0 1 1 2 1 1 1 1 1 1 2l0 0c0 1 0 2-1 2 0 1-1 1-2 1m0-13l0 0c-3 0-5 2-7 3-2 2-3 5-3 7 0 6 5 10 10 10 3 0 5-1 7-3 2-2 3-4 3-7 0-3-1-5-3-7-2-2-4-3-7-3m7-98c8-7 18-6 24 0 8-7 15-7 23-1 6-5 15-6 23 0 7-5 14-5 22-1 4-12 0-33-17-46-17-12-40-12-57-1-18 12-23 33-18 49m-44 85l176 0 0-7-176 0z"/>
<glyph glyph-name="7" unicode="&#103;" d="M244 320c-1 1-2 1-3 1l-15 0 0 15c0 1 0 1-1 2 0 1-1 1-2 1l-7 0c-1 0-2 0-3-1 0-1-1-1-1-2l0-15-15 0c-1 0-2 0-2-1-1-1-1-2-1-3l0-6c0-1 0-2 1-3 0 0 1-1 2-1l15 0 0-15c0-1 1-1 1-2 1-1 2-1 3-1l7 0c1 0 2 0 2 1 1 1 1 1 1 2l0 15 15 0c1 0 2 1 3 1 1 1 1 2 1 3l0 6c0 1 0 2-1 3m107-164c0-4-3-6-7-6-3 0-6 2-6 6 0 3 3 6 6 6 4 0 7-3 7-6m12-1c0-4-2-8-5-12-4-3-8-5-13-5 0 0 0 0 0 0-10 0-18 8-18 17 0 10 8 17 18 17l0 0c10 0 18-7 18-17m-149 61l0 12c-21 2-34 12-41 20-9 10-15 22-16 34l0 1 9 0 0-1c2-16 10-29 25-38 10-6 21-8 33-7 25 2 44 21 47 45l0 0 9 0 0 0c-1-14-7-26-18-37-1-1-3-2-4-3 0 0 0 0 0 0-10-8-21-12-35-14l0-12z m157-57c-2 11-9 17-19 20-2 1-3 1-3 3 0 18 0 36 0 53 0 10 0 20 0 29 0 5-1 10-4 14-3 6-9 10-17 12-7 1-15 0-20-4-8-6-11-13-11-22 0-31 0-62 0-89 0-3 0-5-1-8-3-16-18-29-36-29-1 0-1 0-1 0-19 1-35 15-36 32-1 8-1 17 0 26 0 4 0 7 0 11 0 0 0 1 0 1 0 0 0 0 0 0l0 0 8 0c0 0 0 0 0 0 0 0 0 1 0 1 0 2 0 5 0 7 0 6 0 6 6 7 0 0 1 0 1 0l0 1c24 7 40 22 47 44 2 7 3 14 3 22l-8 0 0 16c0 15 0 31 0 47 0 5-2 9-5 13-3 3-6 4-10 5l-6 0c-2-1-3-2-2-5 0-2 2-2 5-2 6-1 10-4 10-10 0-17 0-33 0-50l0-12c0 0-1 0-1-1 0 0 0 0 0-1l0 0-8 0c0-9-1-16-5-22-3-7-9-13-16-17-7-4-14-6-23-6-10-1-20 2-28 9-12 9-18 21-17 36l-8 0 0 1c0 0 0 0 0 0 0 1 0 1 0 2l0 11c0 17 0 34 0 50 0 6 3 9 9 10 1 0 3 0 3 0 1 0 2 2 3 3 0 2-1 3-3 4l-6 0c0 0-1 0-1 0-1-1-2-1-3-1-7-4-11-9-10-16 0-14 0-29 0-43 0-6 0-12 0-18l0-3-9 0c-1-13 2-25 9-35 10-18 26-29 48-33l0 0 0-14 8 0 0-3c0-3 0-6 0-9 0-7 0-14 1-21 0-4 0-8 1-13 5-17 17-27 35-31 18-3 33 2 45 17 6 7 9 16 9 27 0 23 0 47 0 69 0 1 0 3 0 5 0 6 0 12 0 18 1 8 8 15 16 16 1 0 1 0 2 0 4 0 9-2 12-5 4-3 6-8 6-14 0-10 0-20 0-30 0-17 0-34 0-51 0-3-1-3-3-4-10-2-18-10-19-19-2-11 2-20 12-26 9-5 19-5 28 1 10 5 14 14 12 24"/>
<glyph glyph-name="8" unicode="&#104;" d="M245 139l167 0c0 0 0 0 1 0 3 1 6 4 6 8 0 5 0 23-1 30-2 10-6 17-14 20l-2 2c-3 1-6 3-9 4-7 2-15 5-22 7l-6 2c0-5 0-11-2-16-7-17-17-31-30-41-3-3-6-3-10 0-11 9-20 21-27 37-3 5-4 11-4 16 0 1 0 3 0 4-5-1-9-3-14-4-9-3-17-6-25-10-8-4-12-11-14-21-1-2-1-4-1-6 0-1 0-1 0-2l0-22c0 0 0 0 0-1 1-1 1-2 2-3 1-2 2-3 5-4m169-8l-171 0c-4 1-8 3-11 7-1 2-1 4-2 5 0 1 0 1-1 2l0 1 0 24c0 0 0 1 0 2 1 2 1 4 1 7 3 12 9 21 19 26 8 5 17 8 27 11 5 1 9 3 14 4l10 4 0-9c0-2 0-5 0-7 0-4 1-8 3-13 7-14 15-25 25-33 12 9 21 21 27 37 2 5 2 11 1 17l-1 8 19-6c7-2 15-5 22-7 3-1 6-3 10-5l2-1c10-5 16-14 18-26 2-8 2-23 1-32 0-7-4-13-12-16z m-90 243c0 0-1 0-2 0-6-1-11-2-16-5-11-5-18-13-20-24-1-6-1-13 0-22 0-2 0-3 1-5l0-6-4-1c-2 0-2 0-2-2-1-6 0-11 4-16 3-3 4-7 6-11 4-7 9-15 16-22 8-8 17-10 28-8 7 2 13 6 20 13 6 7 10 16 13 23 1 1 1 2 3 3 4 5 5 10 5 16 0 4 0 4-3 4l-4 1 1 5c0 2 0 4 0 6 1 5 1 9 1 13 0 8-1 14-5 20-5 8-13 14-25 16-2 1-4 1-6 2-1 0-2 0-3 0z m4-131c-10 0-19 4-27 11-8 7-14 17-17 25-2 3-4 6-6 9-5 7-7 14-5 22 0 4 2 7 5 8 0 2 0 3 0 4-1 10-1 17 0 24 3 14 11 24 24 31 6 3 13 4 20 5 0 0 0 0 0 0l2 0 10 0c1 0 1 0 2 0 3-1 5-1 7-1 14-4 24-10 30-21 4-6 7-14 7-24 0-4-1-9-1-14 0-1-1-2-1-4 4-2 6-5 6-10 1-9-2-16-7-22-1-1-1-1-1-2-4-7-8-16-15-24-7-9-15-14-24-16-3-1-6-1-9-1m-4-27c-2 3-5 6-7 9-1 1-1 2 0 3 0 0 0 0 1 0 2 3 5 5 9 5 1-1 3 0 5 0 3 0 8-4 8-6 0-1 0-1 0-2-2-2-4-5-7-7-1-1-1-2 0-3 2-6 5-12 7-18 0-2 0-2 0-3-3-4-7-8-11-11 0 0-1 0-1 0-5 3-8 6-11 11-1 1-1 2 0 3 2 6 5 13 7 19 0 0 0 0 0 0m-230-24l116 0c4 13 11 22 21 28 4 2 7 3 11 5-3 4-6 7-10 9l-2 1c-2 2-5 3-7 4-7 2-13 4-19 6l-5 2c0-5 0-9-2-14-6-15-15-27-26-35-3-3-6-3-9 0-10 7-18 18-25 32-2 4-3 9-3 14 0 1 0 2 0 3l-11-4c-8-2-15-5-22-8-6-4-10-10-12-18-1-2-1-3-1-5 0-1 0-1 0-2l0-12c0 0 0 0 0-1 1-1 1-2 2-3 0-1 2-2 4-2m122-9l-124 0c-4 2-7 3-10 7 0 2-1 3-2 4 0 1 0 1 0 2l-1 1 1 14c0 0 0 1 0 2 0 2 0 4 1 6 2 11 7 18 16 23 8 4 15 7 23 9l23 7 0-8c0-2 0-4 0-6 0-4 0-7 2-11 6-12 13-22 21-29 11 8 18 19 23 32 2 5 2 10 1 15l-1 8 17-6c7-2 13-4 19-6 3-1 6-3 9-4l2-1c7-4 12-10 15-18l1-4-4-1c-4-2-8-4-13-6-9-6-15-14-18-27z m-91 140c0 0 0-1 0-1-1-5 0-10 3-13 3-4 5-7 6-10 3-6 7-14 14-19 7-7 14-9 23-7 6 1 12 5 17 11 5 6 9 14 12 19 0 2 1 3 2 4 3 4 5 8 5 13-1 3-1 3-3 3l-3 1 0 4c0 2 0 4 1 6 0 4 0 8 0 12 0 6-1 12-4 16-5 7-11 12-21 14-2 1-4 1-5 1l-3 1-7 0c0-1-1-1-1-1-6 0-10-1-14-4-10-4-15-11-17-20-1-6-1-11 0-19 0-1 0-3 0-4l1-6-4-1c-1 0-1 0-2 0m40-59c-8 0-16 3-23 10-7 6-12 15-15 21-2 3-3 6-5 8-5 6-6 13-5 20 1 3 2 6 5 7 0 1-1 2-1 3-1 9 0 15 1 21 2 12 9 21 21 27 5 3 11 4 17 5l2 0 8 0 3 0c2-1 4-1 6-2 12-2 20-8 26-17 4-6 6-13 6-21 0-5-1-9-1-13 0-1 0-2 0-3 3-2 5-5 5-9 0-8-2-14-7-20 0 0-1-1-1-1-3-6-7-14-13-21-6-8-13-13-21-14-3-1-5-1-8-1"/>
<glyph glyph-name="clock" unicode="&#105;" d="M219 177c0-3-2-4-5-4l-28 0c-3 0-4 1-4 4 0 2 1 4 4 4l28 0c3 0 5-2 5-4m0 28c0-2-2-4-5-4l-53 0c-3 0-4 2-4 4 0 3 1 5 4 5l53 0c3 0 5-2 5-5m0 29c0-3-2-4-5-4l-77 0c-3 0-5 1-5 4 0 3 2 4 5 4l77 0c3 0 5-1 5-4m0 29c0-3-2-4-5-4l-61 0c-3 0-4 1-4 4 0 2 1 4 4 4l61 0c3 0 5-2 5-4m0 28c0-2-2-4-5-4l-40 0c-3 0-5 2-5 4 0 3 2 5 5 5l40 0c3 0 5-2 5-5m0 29c0-3-2-4-5-4l-20 0c-3 0-4 1-4 4 0 3 1 4 4 4l20 0c3 0 5-1 5-4m29 37l7 0 0 12 14 0c2 0 2 1 2 2 0 2 0 2-2 2l-36 0c-2 0-2 0-2-2 0-1 0-2 2-2l14 0 0-12z m92-15l6-6 6 6-6 6z m21-96c0-19-5-38-15-55l0 0 0 0c-10-17-23-30-40-40l-1 0c-16-10-35-15-54-15l-1 0c-8 0-16 1-24 3-3 0-4 2-4 4 1 3 3 4 5 4 5-2 11-2 20-3l0 8c0 3 1 4 4 4 3 0 4-1 4-4l0-8c16 1 31 5 43 12l-4 7c-1 2-1 4 1 5 3 2 5 1 6-1l4-7c13 8 24 19 32 32l-7 4c-2 1-3 3-1 5 1 3 3 3 5 2l7-4c7 13 11 28 11 43l-7 0c-3 0-5 2-5 4 0 3 2 4 5 4l7 0c0 16-4 31-11 44l-7-4c0-1-1-1-2-1-1 0-2 1-3 2-2 3-1 5 1 6l7 4c-8 13-19 24-32 32l-4-7c-1-2-2-2-4-2 0 0-1 0-2 0-2 2-2 3-1 6l4 7c-13 7-28 11-43 11l0-7c0-3-1-5-4-5-3 0-4 2-4 5l0 8c-1-1-2-1-4-1l-4 0c-5-1-9-1-12-2-2-1-4 0-5 3 0 3 1 4 4 5 3 1 7 1 13 2l0 5-6 0c-3 0-5 1-7 3-3 2-4 4-4 7 0 3 1 5 4 7 2 2 4 3 7 3l36 0c3 0 6-1 8-3 2-2 3-4 3-7 0-3-1-5-3-7-2-2-5-3-8-3l-6 0 0-5c16-2 30-7 42-14l1 0c8-5 15-10 20-15l8 9-5 6 17 17 18-17-18-18-6 6-9-9c5-5 10-11 15-19l0-1c10-17 15-35 15-55m-112-10c1-1 3-2 5-2 2 0 3 1 4 2l24 33-32-23c-1-1-2-3-3-5 0-2 1-4 2-5m5-10c-5 0-8 1-11 4-3 3-4 7-4 12 0 4 2 8 6 10l53 39c2 1 4 0 5-1 2-2 2-3 1-5l-39-53c-2-4-6-5-10-6z"/>
<glyph glyph-name="computer" unicode="&#106;" d="M214 177c0-3-1-5-5-5-4 0-5 2-5 5 0 4 1 6 5 6 4 0 5-2 5-6m162 195l-156 0 0-83 156 0z m0-95l-78 0 0-11 78 0z m-60-38l-4 16-14 0 0-16z m-29 38l-156 0 0-83 156 0z m0-94l-156 0 0-11 156 0z m-60-39l-4 17-28 0-4-17z m156 235c2-2 4-4 4-7l0-106c0-3-2-5-4-8-2-2-5-3-7-3l-53 0 5-16 3 0c4 0 6-2 6-6 0-4-2-6-6-6l-33 0 0-55c0-3-1-6-3-8-3-2-5-3-8-3l-53 0 5-17 4 0c3 0 5-2 5-5 0-4-2-6-5-6l-67 0c-4 0-6 2-6 6 0 3 2 5 6 5l3 0 5 17-53 0c-3 0-5 1-7 3-3 2-4 5-4 8l0 105c0 3 1 6 4 8 2 2 4 4 7 4l78 0 0 83c0 3 1 5 3 7 2 3 5 4 8 4l156 0c2 0 5-1 7-4m-119-229c0-4-1-6-5-6-4 0-6 2-6 6 0 4 2 5 6 5 4 0 5-1 5-5m23 0c0-4-2-6-6-6-3 0-5 2-5 6 0 4 2 5 5 5 4 0 6-1 6-5m16-6c-3 0-5 2-5 6 0 4 2 5 5 5 4 0 6-1 6-5 0-4-2-6-6-6m28 6c0-4-2-6-5-6-4 0-6 2-6 6 0 4 2 5 6 5 3 0 5-1 5-5m22 0c0-4-2-6-5-6-4 0-6 2-6 6 0 4 2 5 6 5 3 0 5-1 5-5m17-6c-4 0-6 2-6 6 0 4 2 5 6 5 4 0 6-1 6-5 0-4-2-6-6-6m6 28c0-4-2-6-6-6-4 0-6 2-6 6 0 4 2 5 6 5 4 0 6-1 6-5m0 22c0-4-2-5-6-5-4 0-6 1-6 5 0 4 2 6 6 6 4 0 6-2 6-6m-6 17c-4 0-6 2-6 5 0 4 2 6 6 6 4 0 6-2 6-6 0-3-2-5-6-5m6 28c0-4-2-6-6-6-4 0-6 2-6 6 0 3 2 5 6 5 4 0 6-2 6-5"/>
<glyph glyph-name="db" unicode="&#107;" d="M226 274c0 4-5 9-16 13-10 5-23 7-38 7-15 0-28-2-38-7-11-4-16-9-16-13 0-5 5-10 16-14 10-5 23-7 38-7 15 0 28 2 38 7 11 4 16 9 16 14m15 0c0-11-7-19-20-26-12-7-29-10-49-10-20 0-37 3-50 10-13 7-20 15-20 26 0 10 7 18 20 25 13 7 30 10 50 10 20 0 37-3 49-10 13-7 20-15 20-25m-1-125c-3-9-12-16-25-21-12-5-27-7-43-7-16 0-31 2-43 7-13 5-21 11-25 19-2 5-1 8 4 10 5 3 8 2 11-3 2-5 8-9 18-13 10-3 21-5 35-5 14 0 26 2 36 5 10 4 16 9 17 13 3 5 6 7 11 5 4-2 6-5 4-10m0 39c-3-9-12-16-25-21-12-5-27-7-43-7-16 0-31 2-43 7-13 5-21 11-25 19-2 5-1 8 4 10 5 3 8 2 11-3 2-5 8-9 18-13 10-3 21-5 35-5 14 0 26 2 36 5 10 4 16 9 17 13 2 5 6 7 11 5 4-2 6-5 4-10m0 39c-3-8-11-15-25-21-12-5-27-7-43-7-16 0-31 2-43 7-13 5-21 11-25 19-2 5 0 8 4 10 5 3 8 2 11-3 2-5 8-9 18-13 10-3 21-5 35-5 14 0 26 2 36 5 10 4 16 9 17 13 2 5 6 6 11 5 4-2 6-6 4-10m168-78c-3-9-11-16-25-21-12-5-26-7-43-7-16 0-31 2-43 7-12 5-20 11-24 19-3 5-1 8 3 10 5 2 9 1 11-3 2-5 8-9 18-13 10-3 21-5 35-5 14 0 26 2 36 5 10 4 16 9 18 13 1 2 2 4 4 5 2 0 4 0 6 0 4-2 6-5 4-10m0 39c-3-9-11-16-25-21-12-5-26-7-43-7-16 0-31 2-43 7-12 5-20 11-24 19-3 5-1 8 3 10 5 2 9 1 11-3 2-5 8-9 18-13 10-3 21-5 35-5 14 0 26 2 36 5 10 4 16 9 18 13 2 6 5 7 10 5 4-2 6-5 4-10m0 39c-2-8-11-15-25-21-12-5-26-7-43-7-16 0-30 2-43 7-12 5-20 11-24 19-2 5-1 8 3 10 5 2 9 1 11-3 2-5 8-9 18-13 10-3 21-5 35-5 14 0 26 2 36 5 10 4 16 9 18 13 1 5 4 7 10 5 4-2 6-5 4-10m0 39c-2-8-11-15-25-21-12-5-26-7-43-7-16 0-30 2-43 7-12 5-20 11-24 19-2 5-1 8 3 10 5 2 9 1 11-3 2-5 8-9 18-13 10-3 21-5 35-5 14 0 26 2 36 5 10 4 16 9 18 13 1 5 4 7 10 5 4-2 6-5 4-10m0 40c-2-9-11-16-25-22-12-5-26-7-43-7-16 0-30 2-43 7-12 5-20 11-24 19-2 5-1 8 3 10 5 2 9 1 11-3 2-5 8-9 18-13 10-3 22-5 35-5 14 0 26 2 36 5 10 4 16 9 18 13 1 5 4 7 10 5 4-2 6-5 4-9m-122 46c0-5 5-10 16-14 10-5 23-7 38-7 15 0 28 2 38 7 11 4 16 9 16 14 0 5-5 9-16 14-10 4-23 6-38 6-15 0-28-2-38-6-11-5-16-9-16-14m-15 0c0 10 6 18 20 25 12 7 29 10 49 10 20 0 37-3 50-10 13-7 20-15 20-25 0-11-7-19-21-26-13-7-29-10-49-10-20 0-36 3-49 10-13 7-20 15-20 26"/>
<glyph glyph-name="document" unicode="&#108;" d="M290 304l18 0c4 0 6 2 6 6 0 3-2 5-6 5l-18 0c-4 0-5-2-5-5 0-4 1-6 5-6z m52 78c-3 3-7 5-11 5l-150 0c-5 0-8-2-11-5-3-3-5-7-5-11l0-225c0-4 2-8 5-11 3-3 6-4 11-4l122 0c2 0 3 0 4 1l37 38c1 1 2 2 2 4l0 197c0 4-1 8-4 11z m-33-233l0 14c0 3 1 5 4 5l15 0z m26 30l-22 0c-4 0-8-2-11-5-3-3-4-7-4-11l0-22-117 0c-3 0-5 2-5 5l0 198 159 0z m0 176l-159 0 0 16c0 3 2 5 5 5l150 0c3 0 4-2 4-5z m-27-156l-51 0c-4 0-5-2-5-6 0-3 1-5 5-5l51 0c4 0 6 2 6 5 0 4-2 6-6 6z m-18 62l18 0c4 0 6 2 6 6 0 3-2 5-6 5l-18 0c-4 0-5-2-5-5 0-4 1-6 5-6z m-92 0l71 0c3 0 5 2 5 6 0 3-2 5-5 5l-71 0c-4 0-5-2-5-5 0-4 1-6 5-6z m0-42l71 0c3 0 5 1 5 5 0 4-2 6-5 6l-71 0c-4 0-5-2-5-6 0-4 1-5 5-5z m0 85l71 0c3 0 5 2 5 6 0 3-2 5-5 5l-71 0c-4 0-5-2-5-5 0-4 1-6 5-6z m92-85l18 0c4 0 6 1 6 5 0 4-2 6-6 6l-18 0c-4 0-5-2-5-6 0-4 1-5 5-5z"/>
<glyph glyph-name="helpdesk" unicode="&#109;" d="M372 247c0 7-3 12-7 17-5 5-11 7-18 7l-13 0 0-64 13 0c7 0 13 2 18 7 4 4 7 10 7 16z m-91-115c2 2 3 4 3 6 0 3-1 6-3 8-2 2-4 3-7 3l-18 0c-3 0-5-1-7-3-2-2-3-5-3-8 0-2 1-5 3-7 2-2 4-3 7-3l18 0c2 0 5 1 7 4m-101 139l-15 0c-7 0-12-2-17-7-5-5-7-10-7-17l0-17c0-6 2-12 7-16 5-5 10-7 17-7l15 0z m195 2c7-7 11-16 11-26l0-17c0-10-4-18-11-26-6-7-15-11-25-11-2-24-11-42-29-53-7-4-15-7-24-8-1-5-4-9-9-13-4-3-9-5-14-5l-18 0c-7 0-12 3-17 7-5 5-7 11-7 17 0 7 2 13 7 18 5 5 10 7 17 7l17 0c13 0 20-6 24-17 24 5 37 20 39 47l-9 0c-5 0-7 2-7 7l0 78c0 5 2 7 7 7l9 0 0 10c0 23-7 42-21 57-15 16-33 23-54 23l-9 0c-21 0-39-7-54-23-14-15-22-34-22-57l0-10 10 0c5 0 7-2 7-7l0-78c0-5-2-7-7-7l-21 0c-10 0-19 3-27 11-7 7-11 16-11 26l0 17c0 10 3 19 10 26 7 7 15 11 25 11l0 11c0 26 9 48 26 66 16 19 38 28 64 28l9 0c26 0 47-9 64-28 17-18 25-40 25-66l0-11c10 0 19-4 25-11"/>
<glyph glyph-name="idea" unicode="&#110;" d="M267 148c3 4 4 7 5 12l-32 0c0-5 2-8 5-12 3-3 6-4 10-4 5 0 9 1 12 4m12 16c0 0 0-2 0-3 0-7-2-13-7-18-4-4-10-7-17-7-6 0-12 3-16 7-5 5-7 11-7 18 0 0 0 1 0 2 0 0 0 1 0 1l1 3 46 0c0 0 0-3 0-3z m61 127c0-3-1-4-3-4l-12 0c-3 0-4 1-4 4 0 2 1 3 4 3l12 0c2 0 3-1 3-3m-154 0c0-3-1-4-4-4l-12 0c-2 0-4 1-4 4 0 2 2 3 4 3l12 0c3 0 4-1 4-3m136 57l-9-9c-1-1-2-1-2-1-2 0-3 0-3 1-2 2-2 4 0 5l9 9c1 2 3 2 5 0 2-2 2-4 0-5m-123-9c-1-1-2-1-3-1-1 0-2 0-2 1l-9 9c-2 1-2 3 0 5 2 2 4 2 5 0l9-9c2-1 2-3 0-5m51 25l0 12c0 2 1 4 4 4 2 0 4-2 4-4l0-12c0-3-2-4-4-4-3 0-4 1-4 4m-14-192c-2 0-3 1-3 4 0 2 1 3 3 3l38 0c3 0 4-1 4-3 0-3-1-4-4-4z m43 15c0-2-1-3-4-3l-40 0c-2 0-3 1-3 3 0 3 1 4 3 4l40 0c3 0 4-1 4-4m24 107c0 13-5 25-15 34-10 9-22 14-36 14-14 0-25-4-34-13-9-10-14-21-14-35 0-13 5-28 14-44 10-16 17-32 21-47l33 0c4 15 10 31 19 47 8 16 12 31 12 44m-9 39c11-10 17-23 17-39 0-15-5-31-14-47-9-18-15-34-18-49 0-1-1-2-3-2l-40 0c-2 0-3 1-4 2-3 16-10 32-20 48-11 17-16 34-16 48 0 16 6 30 16 40 11 10 24 16 40 16 16 0 30-6 42-17"/>
<glyph glyph-name="interfacciabile" unicode="&#111;" d="M401 168c0 4-2 6-6 6l-46 0c-4 0-6-2-6-6l0-45c0-5 2-7 6-7l46 0c4 0 6 2 6 7z m-116 0c0 4-2 6-7 6l-45 0c-4 0-6-2-6-6l0-45c0-5 2-7 6-7l45 0c5 0 7 2 7 7z m-117 0c0 4-2 6-6 6l-45 0c-5 0-7-2-7-6l0-45c0-5 2-7 7-7l45 0c4 0 6 2 6 7z m233 116c0 5-2 7-6 7l-46 0c-4 0-6-2-6-7l0-45c0-4 2-7 6-7l46 0c4 0 6 3 6 7z m-116 0c0 5-2 7-7 7l-45 0c-4 0-6-2-6-7l0-45c0-4 2-7 6-7l45 0c5 0 7 3 7 7z m-117 0c0 5-2 7-6 7l-45 0c-5 0-7-2-7-7l0-45c0-4 2-7 7-7l45 0c4 0 6 3 6 7z m233 117c0 4-2 6-6 6l-46 0c-4 0-6-2-6-6l0-46c0-4 2-6 6-6l46 0c4 0 6 2 6 6z m-116 0c0 4-2 6-7 6l-45 0c-4 0-6-2-6-6l0-46c0-4 2-6 6-6l45 0c5 0 7 2 7 6z m-117 0c0 4-2 6-6 6l-45 0c-5 0-7-2-7-6l0-46c0-4 2-6 7-6l45 0c4 0 6 2 6 6z"/>
<glyph glyph-name="modulare" unicode="&#112;" d="M428 390c-2 2-5 4-9 4l-327 0c-3 0-6-2-9-4-2-2-3-5-3-9l0-50c0-4 1-6 3-9 3-2 6-4 9-4l327 0c4 0 7 2 9 4 3 3 4 5 4 9l0 50c0 4-1 7-4 9m0-101c-2 3-5 4-9 4l-327 0c-3 0-6-1-9-4-2-2-3-5-3-8l0-51c0-3 1-6 3-9 3-2 6-3 9-3l327 0c4 0 7 1 9 3 3 3 4 6 4 9l0 51c0 3-1 6-4 8m0-100c-2 2-5 4-9 4l-327 0c-3 0-6-2-9-4-2-3-3-6-3-9l0-50c0-4 1-7 3-9 3-3 6-4 9-4l327 0c4 0 7 1 9 4 3 2 4 5 4 9l0 50c0 3-1 6-4 9m-97 180l76 0 0-26-76 0z m-126-101l202 0 0-25-202 0z m76-101l126 0 0-25-126 0z"/>
<glyph glyph-name="multi-centrale" unicode="&#113;" d="M391 188c-2 1-5 1-8 0-2-2-40-19-112-54-3-2-8-3-14-3-6 0-11 1-14 3l-110 53c-5 2-9 2-12 1-3-2-13-7-29-16-4-1-6-4-6-6 0-3 2-5 6-7l151-73c3-2 8-3 14-3 6 0 11 1 14 3l151 73c4 2 6 4 6 7 0 2-2 5-6 6z m0 89c-2 1-5 1-8 0-2-1-40-20-112-55-3-1-8-2-14-2-6 0-11 1-14 2l-110 54c-4 2-8 2-12 0-3-2-13-7-29-14-4-2-6-5-6-7 0-3 2-6 6-8l151-72c5-2 9-3 14-3 5 0 10 1 14 3l151 72c4 2 6 5 6 8 0 2-2 5-6 7z m-148-14c3-1 8-2 14-2 6 0 11 1 14 2l151 74c4 1 6 4 6 6 0 3-2 5-6 7l-151 73c-3 2-8 3-14 3-6 0-11-1-14-3l-151-73c-4-2-6-4-6-7 0-2 2-5 6-6z"/>
<glyph glyph-name="parametizzabile" unicode="&#114;" d="M344 116c0 20 0 33-1 40-3 10-22 23-60 37-9 3-14 5-16 6-7 3-13 5-16 6-4 2-6 4-8 8-2 4-2 8-2 10l0 17c0 6 2 11 6 17 5 5 8 15 11 29 0 5 2 9 4 12 2 4 4 10 6 19 1 5 1 10 0 13-1 3-2 6-2 7 1 8 2 16 3 25 1 11-4 23-15 37-11 13-27 20-49 20-23 0-39-7-50-20-10-13-15-26-14-37 1-9 2-17 3-25 0-1-1-4-2-7 0-4 0-8 1-13 2-9 3-15 5-19 2-3 4-7 4-12 3-14 6-24 11-29 4-6 6-11 6-17 0-17-1-26-4-30-3-3-16-9-38-17-38-14-57-27-60-37-1-7-1-29-1-66l278 0 0 26z m29 91c-2 3-4 10-4 22 0 4 2 10 6 15 3 6 6 14 8 25 0 4 1 7 3 10 1 2 3 7 5 14 1 4 1 7 0 10-1 3-1 4-1 6 0 1 0 4 1 8 0 4 0 8 0 10 1 9-3 19-11 29-8 11-21 16-38 16-17 0-30-5-38-15-8-11-12-20-11-30 0-2 0-6 1-10 0-4 1-7 1-8 0-1-1-3-2-6-1-4 0-7 1-10 1-7 3-12 4-14 2-3 3-6 3-10 2-11 5-19 8-24 4-6 5-11 5-16l0-10c0-1 0-2 0-4 0-2-1-3-2-4-1-1-3-2-5-3-1-1-3-2-6-3 2-1 5-2 9-3 3-2 6-3 8-3 14-6 25-12 32-18 8-7 12-11 13-14 1-3 1-7 2-11 0-4 1-26 1-66l84 0-2 77c-1 8-16 17-45 28-19 8-28 12-30 12"/>
<glyph glyph-name="sicurezza" unicode="&#115;" d="M403 430c-3 3-6 4-10 4l-273 0c-4 0-8-1-11-4-3-3-5-7-5-11l0-182c0-14 3-27 8-40 6-14 12-26 20-36 8-10 17-20 28-30 11-10 21-18 30-25 9-6 19-12 29-18 10-6 17-10 21-12 4-2 7-3 10-5 2 0 4-1 6-1 2 0 4 1 6 1 3 2 6 3 10 5 5 2 12 6 22 12 10 6 19 12 28 18 9 7 19 15 30 25 11 10 20 20 28 30 8 10 15 22 20 36 5 13 8 26 8 40l0 182c0 4-2 8-5 11m-96-278c-15-12-32-23-51-33l0 270 106 0 0-152c0-28-18-56-55-85"/>
<glyph glyph-name="user-friendly" unicode="&#116;" d="M260 196c-7 8-13 17-18 27-4 11-6 22-6 33 0 12 2 23 6 33 5 10 11 19 18 27 8 8 17 14 27 18 11 4 22 7 33 7 12 0 23-3 33-7 10-4 19-10 27-18 8-8 14-17 18-27 4-10 7-21 7-33 0-11-3-22-7-33-4-10-10-19-18-27-8-7-17-13-27-18-10-4-21-6-33-6-11 0-22 2-33 6-10 5-19 11-27 18m-141-15c9-9 20-16 33-22 13-6 27-8 41-8l127 0c14 0 28 2 41 8 13 6 24 13 34 22 9 10 17 21 22 34 6 13 9 27 9 41 0 14-3 28-9 41-5 13-13 24-22 34-10 9-21 17-34 22-13 6-27 9-41 9l-127 0c-14 0-28-3-41-9-13-5-24-13-33-22-10-10-17-21-23-34-5-13-8-27-8-41 0-14 3-28 8-41 6-13 13-24 23-34"/>
<glyph glyph-name="web" unicode="&#117;" d="M440 399c-6 6-14 9-22 9l-321 0c-8 0-16-3-22-9-7-6-10-14-10-23l0-192c0-9 3-16 10-22 6-7 14-10 22-10l148 0 0-25-71 0c-2 0-3-1-4-2-2-1-2-3-2-5l0-13c0-2 0-3 2-4 1-1 2-2 4-2l167 0c2 0 3 1 4 2 2 1 2 2 2 4l0 13c0 2 0 4-2 5-1 1-2 2-4 2l-71 0 0 25 148 0c8 0 16 3 22 10 7 6 10 13 10 22l0 192c0 9-3 17-10 23m-18-219c-1-2-3-2-4-2l-321 0c-1 0-3 0-4 2-1 1-2 2-2 4l0 192c0 2 1 4 2 5 1 1 3 2 4 2l321 0c1 0 3-1 4-2 1-1 2-3 2-5l0-192c0-2-1-3-2-4"/>
<glyph glyph-name="cloud" unicode="&#118;" d="M146 263l211 0 0 62-211 0z m12 49l186 0 0-37-186 0z m-12-118l211 0 0 62-211 0z m12 50l186 0 0-37-186 0z m-12-118l99 0 0-25-12 0 0-12-81 0 0-13 81 0 0-12 37 0 0 12 87 0 0 13-87 0 0 12-13 0 0 25 100 0 0 62-211 0z m111-50l-12 0 0 13 12 0z m-99 100l186 0 0-37-186 0z m12 124l63 0 0-13-63 0z m149 0l13 0 0-13-13 0z m-24 0l12 0 0-13-12 0z m-25 0l12 0 0-13-12 0z m-100-68l63 0 0-13-63 0z m149 0l13 0 0-13-13 0z m-24 0l12 0 0-13-12 0z m-25 0l12 0 0-13-12 0z m-100-69l63 0 0-12-63 0z m149 0l13 0 0-12-13 0z m-24 0l12 0 0-12-12 0z m-25 0l12 0 0-12-12 0z m136 163c6 58-37 123-111 123-36 0-70-18-91-47-54 16-102-29-102-74-26-8-43-32-43-59 0-34 28-62 62-62l18 0 0 12-18 0c-27 0-50 23-50 50 0 43 44 49 44 49-3 66 62 85 94 70 0 0 27 48 86 48 78 0 108-77 97-118 0 0 39-9 39-49 0-27-22-50-50-50l-18 0 0-12 18 0c35 0 62 28 62 62 0 25-14 48-37 57z m-31 11c0 45-36 81-80 81l0-13c37 0 68-30 68-68z"/>
</font>
</defs>
</svg>
